<svg version="1.2" xmlns="http://www.w3.org/2000/svg" viewBox="0 0 512 512" width="512" height="512">
	<title>github-svg</title>
	<style>
		.s0 { fill: #050505 } 
	</style>
	<path class="s0" d="m256 32c-123.7 0-224 102.9-224 229.7 0 101.5 64.2 187.5 153.2 217.9q0.5 0.1 0.9 0.2 0.5 0.1 1 0.1 0.5 0.1 0.9 0.1 0.5 0 1 0c8.3 0 11.5-6.1 11.5-11.4 0-5.5-0.2-19.9-0.3-39.1q-2.8 0.7-5.6 1.1-2.8 0.5-5.6 0.9-2.9 0.3-5.7 0.5-2.8 0.2-5.7 0.2c-43.1 0-52.9-33.5-52.9-33.5-10.2-26.5-24.9-33.6-24.9-33.6-19.5-13.7-0.1-14.1 1.4-14.1h0.1c22.5 2 34.3 23.8 34.3 23.8 11.2 19.6 26.2 25.1 39.6 25.1q3.3-0.1 6.6-0.5 3.3-0.4 6.5-1.1 3.2-0.8 6.4-1.9 3.1-1.1 6.1-2.5c2-14.8 7.8-24.9 14.2-30.7-49.7-5.8-102-25.5-102-113.5 0-25.1 8.7-45.6 23-61.6-2.3-5.8-10-29.2 2.2-60.8q0.6-0.1 1.2-0.3 0.7-0.1 1.3-0.1 0.6-0.1 1.2-0.1 0.7 0 1.3 0c8.1 0 26.4 3.1 56.6 24.1 9.1-2.6 18.4-4.5 27.8-5.8 9.4-1.3 18.8-1.9 28.3-1.9 9.5 0 18.9 0.6 28.3 1.9 9.4 1.3 18.7 3.2 27.8 5.8 30.2-21 48.5-24.1 56.6-24.1q0.6 0 1.3 0 0.6 0 1.2 0.1 0.6 0 1.3 0.1 0.6 0.2 1.2 0.3c12.2 31.6 4.5 55 2.2 60.8 14.3 16.1 23 36.6 23 61.6 0 88.2-52.4 107.6-102.3 113.3 8 7.1 15.2 21.1 15.2 42.5 0 30.7-0.3 55.5-0.3 63 0 5.4 3.1 11.5 11.4 11.5q0.5 0 1 0 0.5 0 1-0.1 0.5 0 1-0.1 0.5-0.1 1-0.2c89.1-30.4 153.2-116.5 153.2-217.9 0-126.8-100.3-229.7-224-229.7z"/>
</svg>